<?xml version="1.0" encoding="UTF-8" standalone="no"?>
<!-- Created with Inkscape (http://www.inkscape.org/) -->

<svg
   width="369.63196"
   height="318.80872"
   viewBox="0 0 369.63196 318.80872"
   version="1.1"
   id="svg1"
   xml:space="preserve"
   xmlns:inkscape="http://www.inkscape.org/namespaces/inkscape"
   xmlns:sodipodi="http://sodipodi.sourceforge.net/DTD/sodipodi-0.dtd"
   xmlns:xlink="http://www.w3.org/1999/xlink"
   xmlns="http://www.w3.org/2000/svg"
   xmlns:svg="http://www.w3.org/2000/svg"><sodipodi:namedview
     id="namedview1"
     pagecolor="#505050"
     bordercolor="#eeeeee"
     borderopacity="1"
     inkscape:showpageshadow="0"
     inkscape:pageopacity="0"
     inkscape:pagecheckerboard="0"
     inkscape:deskcolor="#505050"
     inkscape:document-units="px" /><defs
     id="defs1"><linearGradient
       id="linearGradient27"
       inkscape:collect="always"><stop
         style="stop-color:#c8ffff;stop-opacity:1;"
         offset="0"
         id="stop27" /><stop
         style="stop-color:#ffffff;stop-opacity:1;"
         offset="1"
         id="stop28" /></linearGradient><linearGradient
       id="linearGradient24"
       inkscape:collect="always"><stop
         style="stop-color:#69ab3c;stop-opacity:1;"
         offset="0"
         id="stop24" /><stop
         style="stop-color:#9fab3c;stop-opacity:1;"
         offset="1"
         id="stop25" /></linearGradient><linearGradient
       inkscape:collect="always"
       xlink:href="#linearGradient24"
       id="linearGradient25"
       x1="262.04318"
       y1="126.62581"
       x2="499.42264"
       y2="126.62581"
       gradientUnits="userSpaceOnUse" /><linearGradient
       inkscape:collect="always"
       xlink:href="#linearGradient27"
       id="linearGradient28"
       x1="86.69841"
       y1="240.0394"
       x2="356.80295"
       y2="122.23316"
       gradientUnits="userSpaceOnUse" /></defs><g
     inkscape:label="Capa 1"
     inkscape:groupmode="layer"
     id="layer1"
     transform="translate(-78.363548,-77.649178)"><g
       id="g2"
       transform="translate(-51.42714,133.76684)"><path
         id="path3"
         style="fill:url(#linearGradient25)"
         d="m 447.99805,27.375 c -1.4248,-0.205032 -29.53343,13.112432 -75.9668,35.992188 -109.75256,54.079852 -109.6638,54.034742 -109.98437,56.333982 -0.15344,1.1 4.48319,12.05259 10.30468,24.33985 5.82166,12.28711 10.44751,23.08743 10.2793,24 -0.17877,0.96971 -4.80571,3.9454 -11.13672,7.16015 -0.50666,0.25728 -0.74355,0.3619 -1.20508,0.59571 0.15791,0.36705 0.32058,0.70834 0.47656,1.07812 0.74593,1.28056 3.66435,6.9014 4.60938,8.82812 0.37267,-0.18601 0.77581,-0.40811 1.1543,-0.60156 -0.31569,-0.0965 -0.62933,-0.20147 -0.93946,-0.3125 -0.22595,-0.0809 -0.36611,-0.31118 -0.54882,-0.46679 -0.2886,-0.34056 -0.59347,-0.66736 -0.86524,-1.02149 -0.0861,-0.11226 -0.15218,-0.23985 -0.20508,-0.37109 -0.26599,-0.66009 -0.45746,-1.1344 -0.44726,-1.81641 0.0831,-5.5433 4.95622,-6.19487 6.10547,-1.95898 0.0762,0.009 0.15013,0.0127 0.21289,0.002 0.37102,-0.0641 0.72924,-0.18351 1.09179,-0.28516 1.59418,-0.44694 1.18222,-0.32858 2.69336,-0.92578 0.18477,-0.0751 0.35845,-0.17664 0.54102,-0.25781 0.22217,-1.25017 1.36657,-2.55233 3.64062,-3.24805 0.86232,-0.26381 1.71861,-0.54275 2.5625,-0.86133 1.06583,-0.40194 2.09343,-0.90978 3.18946,-1.22656 0.32741,-0.0307 0.65461,-0.0701 0.98242,-0.0918 -0.18226,-1.31321 0.39712,-2.17972 2.42969,-2.125 0.43835,0.0118 0.94505,0.0678 1.52539,0.16992 0.82154,0.14458 1.60767,0.41431 2.38086,0.7207 1.00725,0.37283 1.87098,0.97877 2.65625,1.69727 0.16778,0.1535 0.33599,0.30896 0.4707,0.49218 0.36655,0.4986 0.68665,1.03157 1.0293,1.54688 0.52941,1.1712 0.88269,2.47523 0.90039,3.77148 0.006,0.42968 -0.0106,0.85938 -0.0156,1.28907 -0.0768,1.30974 -0.43067,2.57669 -0.7207,3.84961 -0.0718,0.27218 -0.10693,0.55126 -0.14063,0.83007 -1.22684,10.16622 -9.87863,10.98556 -12.17773,4.20117 -2.91465,3.22214 -3.1279,4.73777 -1.60352,7.06446 2.41418,3.68435 6.62486,3.14777 28.50782,-3.63477 12.143,-3.76356 15.77423,-3.84244 16.64843,-0.35937 0.35521,1.41527 0.24474,2.97596 -0.24609,3.46679 -0.49084,0.49083 -7.53263,3.15419 -15.64648,5.91993 -3.14937,1.07348 -4.99476,1.72348 -7.29688,2.51953 1.1413,0.4105 2.21896,0.99689 3.19727,1.74023 0.71503,0.72217 1.49391,1.38533 2.14453,2.16602 0.42217,0.50657 0.73619,1.09647 1.05468,1.67383 0.47809,0.86631 0.88569,1.76273 1.25196,2.67578 0.88206,-0.29614 1.53263,-0.48284 2.43359,-0.79102 9.73758,-3.33084 18.67073,-5.91834 19.85156,-5.75 2.75992,0.39342 3.39824,4.31873 1.11329,6.84375 -0.92311,1.02002 -9.6013,4.47638 -19.51172,7.79883 0.34803,0.29407 0.70207,0.58081 1.04687,0.87891 0.7197,0.62221 1.4489,1.23529 2.13672,1.89257 0.67067,0.64088 1.29031,1.33353 1.93555,2 0.31043,0.36564 0.6579,0.70728 0.97265,1.07032 1.30677,-0.47312 2.64294,-0.86162 3.99414,-1.20313 -0.64559,-4.77178 3.77511,-9.89239 13.26758,-9.89453 0.13936,-2e-5 0.27861,3e-5 0.41797,0 0.6712,0 1.34248,2.5e-4 2.01367,-0.002 0.8894,-0.002 1.7786,-0.005 2.66797,-0.0117 0.3996,-0.003 0.79957,-0.008 1.19922,-0.0137 0.24275,-0.26893 0.48693,-0.51844 0.73242,-0.76172 -0.68662,0.001 -1.37209,0.0239 -2.05859,0.0566 -0.51565,0.0274 -0.50077,0.0268 -1,0.0547 -0.1366,0.008 -0.27447,0.0409 -0.41016,0.0234 -0.28774,-0.0371 -0.6915,0.0564 -0.85156,-0.18554 -0.4316,-0.65249 -0.78324,-1.44523 -0.74414,-2.22657 0.006,-0.11142 0.0553,-0.20254 0.12695,-0.2832 -0.16968,-0.78212 0.44235,-1.72678 1.9961,-2.03711 0.56352,-0.11255 1.12561,-0.22552 1.6914,-0.32617 0.76875,-0.14856 1.52682,-0.34893 2.29297,-0.50977 0.18068,-0.0386 0.36213,-0.0774 0.54297,-0.11523 0.70586,-3.77146 3.21644,-5.06645 71.36133,-39.24219 53.22367,-26.69245 70.91322,-36.00167 71.30078,-37.52148 0.33901,-1.32938 -7.53598,-18.61593 -23.00586,-50.500002 C 447.89434,22.415905 450.72043,27.766782 447.99805,27.375 Z m -4.58399,13.216797 c 0.21669,-0.01144 0.42371,0.01727 0.63282,0.101562 1.25448,0.505686 2.56605,3.000377 6.1914,10.679688 2.94121,6.230169 12.37614,25.686705 20.9668,43.236328 8.59067,17.549595 15.62109,32.289175 15.62109,32.753905 0,0.46472 -30.41072,15.91926 -67.57617,34.3418 -37.16546,18.42255 -68.36479,33.49609 -69.33203,33.49609 -2.34703,0 -3.0918,-0.87644 -3.0918,-3.63476 0,-2.04346 6.22931,-5.38187 55.71289,-29.86719 30.64143,-15.16203 55.99663,-28.03088 56.34571,-28.5957 0.34908,-0.56482 0.42668,-3.19581 0.17187,-5.84766 -0.61544,-6.4048 1.19671,-11.47826 5.93555,-16.61914 3.9018,-4.23313 3.90256,-4.2333 -5.45899,-23.083986 -9.36155,-18.8507 -9.36276,-18.850618 -17.28515,-19.361328 -8.63824,-0.556841 -13.39189,-2.489588 -16.02735,-6.511718 -0.89343,-1.363539 -2.22085,-2.478516 -2.94922,-2.478516 -1.25592,0 -70.36147,33.417822 -105.18164,50.863278 -16.23452,8.1338 -16.2342,8.13254 -15.61132,14.0918 0.54286,5.19368 0.27385,6.67275 -2.0918,11.50781 -1.4929,3.05137 -3.5787,6.01189 -4.63672,6.57813 -2.71097,1.45086 -2.42073,3.75849 1.57617,12.52929 1.925,4.22414 3.5,8.07335 3.5,8.55469 0,0.48133 -1.58052,0.875 -3.51172,0.875 -3.51111,0 -3.51143,-10e-4 -13,-19.65429 -5.21864,-10.80926 -9.48828,-20.05953 -9.48828,-20.55665 0,-0.49711 19.23798,-10.38327 42.75,-21.96875 23.51218,-11.585385 60.80397,-29.961246 82.86914,-40.83398 22.06517,-10.872734 41.09128,-20.077412 42.28125,-20.455078 0.24446,-0.07759 0.47082,-0.129185 0.6875,-0.140625 z m -8.15234,50.609375 c 6.59912,0 10.10592,8.362919 5.31445,12.675778 -4.24238,3.81885 -8.5666,3.64517 -11.80859,-0.47656 -3.9984,-5.083034 -0.21037,-12.199218 6.49414,-12.199218 z m -57.11914,1.214844 c 1.04664,-0.02996 2.10915,-0.0086 3.18359,0.06445 3.90799,0.265621 9.08381,1.390804 11.71875,2.548828 10.22249,4.492731 18.73072,15.894696 20.2832,27.183596 0.84036,6.10999 -0.95879,15.2273 -4.06835,20.62305 -3.59207,6.23249 -11.76939,13.09039 -17.71289,14.85547 -5.34155,1.58611 -14.4876,1.86654 -18.72071,0.57421 -4.01836,-1.22664 -10.49145,-4.76533 -13.7832,-7.53515 -7.12582,-5.99612 -11.84882,-18.80918 -10.74219,-29.14258 1.80934,-16.89501 14.14223,-28.722427 29.8418,-29.171877 z m -6.625,8.496094 c -0.61987,-0.13084 -1.30418,0.0667 -2.32813,0.5332 -2.00732,0.91467 -2.33554,1.60826 -1.83593,3.88281 0.42907,1.95352 -0.01,3.60405 -1.48829,5.60352 -3.00197,4.06059 -3.50478,9.05095 -1.33789,13.26953 2.24928,4.37885 6.85921,6.17833 13.90821,5.43164 6.40085,-0.67806 10.147,0.22639 10.91015,2.63086 1.31452,4.14168 -3.78933,7.9375 -10.66992,7.9375 -2.48815,0 -2.84961,0.37453 -2.84961,2.94141 0,3.72567 1.22422,4.45167 7.05664,4.18554 3.4525,-0.15738 4.85156,0.19505 5.28711,1.33008 0.64741,1.68711 3.37074,2.00894 5.51172,0.65235 0.9304,-0.58953 1.14643,-1.82629 0.68359,-3.9336 -0.51764,-2.35663 -0.1351,-3.80259 1.64258,-6.20703 3.60396,-4.87445 3.21729,-11.03007 -0.95312,-15.19922 -3.16362,-3.16239 -3.53904,-3.26953 -11.5,-3.26953 -8.8303,0 -10.72852,-0.60294 -10.72852,-3.40429 0,-2.6039 3.2132,-5.09356 7.46289,-5.78321 4.10468,-0.66607 5.07111,-2.04721 4.11133,-5.87109 -0.59611,-2.37511 -0.93805,-2.50923 -4.88086,-1.91797 -3.48466,0.52255 -4.56426,0.27663 -6.0625,-1.37891 -0.76369,-0.84387 -1.31958,-1.30275 -1.93945,-1.43359 z m -44.19141,44.28906 c 6.94389,0 10.21793,8.0985 5.18555,12.82617 -4.91431,4.61674 -12.68555,1.16092 -12.68555,-5.64062 0,-4.26907 3.04426,-7.18555 7.5,-7.18555 z m -28.22265,36.10547 c -0.32297,0.66772 -0.76742,1.36084 -1.29102,2.06641 2.01234,0.50404 2.03814,-0.46109 1.29102,-2.06641 z" /><path
         id="path2"
         style="fill:url(#linearGradient28)"
         d="m 255.22266,-56.074219 c -24.96392,0.75791 -49.13724,11.415259 -67.0918,30.609375 -27.99395,29.9266131 -34.21333,75.196752 -15.37695,111.923828 3.97868,7.757629 3.97854,7.757858 1.27539,9.402344 -19.77179,12.028302 -29.93004,22.726292 -37.71485,39.718752 -10.56567,23.06244 -8.12941,52.75146 6.08789,74.17187 18.62618,28.063 57.40077,48.22462 100.83204,52.42969 10.25589,0.99299 30.63173,0.48563 44.09179,-1.09961 15.0895,-1.77714 42.04137,-9.23315 54.17774,-14.98633 9.48357,-4.49562 12.57729,-11.56161 8.90625,-20.34765 -1.30952,-3.13413 -1.26192,-3.52731 0.64062,-5.21875 2.51091,-2.23231 5.72205,-8.997 5.75195,-12.11719 0.0325,-3.38981 -3.58675,-9.86186 -6.875,-12.29297 -2.02851,-1.49975 -3.07158,-3.32758 -3.52734,-6.17773 -0.45436,-2.84137 -1.79462,-5.19502 -4.49414,-7.89453 -3.30663,-3.30663 -4.46845,-3.84571 -8.28711,-3.84571 -2.44278,0 -8.22603,1.13309 -12.85156,2.51758 -4.62555,1.38449 -8.9794,2.29847 -9.67578,2.03125 -0.74098,-0.28434 -1.26563,-2.21194 -1.26563,-4.64844 0,-8.23883 -6.9339,-14.70934 -14.65429,-13.67383 -2.16631,0.29057 -6.61813,1.9291 -9.89258,3.64063 -24.53469,12.82407 -23.92087,12.60252 -36.12891,12.9668 -13.42217,0.4005 -22.79094,-1.61365 -35.74805,-7.68555 -10.8009,-5.06148 -15.74967,-8.50553 -23.84179,-16.59766 -3.60261,-3.6026 -7.26665,-6.55078 -8.14258,-6.55078 -2.28959,0 -5.5918,3.63108 -5.5918,6.14844 0,3.09318 14.14803,16.66541 22.55469,21.63672 18.05545,10.67715 41.17181,16.47286 56.95703,14.27734 9.12457,-1.26911 17.15919,-4.44382 28.98828,-11.45312 10.60332,-6.28298 11.45426,-6.6202 13.75,-5.43946 3.1394,1.61465 2.14518,6.04018 -2.33008,10.37696 -5.72387,5.54677 -6.40253,7.0682 -4.46875,10.01953 2.41418,3.6845 6.62456,3.14777 28.50782,-3.63477 12.1433,-3.76371 15.77423,-3.84244 16.64843,-0.35937 0.35521,1.41527 0.24474,2.97596 -0.24609,3.46679 -0.49084,0.49083 -7.53248,3.15419 -15.64648,5.91993 -21.5644,7.35044 -21.71485,7.42573 -21.71485,10.78906 0,3.41366 1.60869,5.25195 4.59766,5.25195 1.20877,0 10.16461,-2.72579 19.90234,-6.05664 9.73773,-3.33084 18.67058,-5.91834 19.85156,-5.75 2.75992,0.39342 3.39839,4.31873 1.11329,6.84375 -0.93895,1.03753 -9.84099,4.58854 -19.96485,7.96289 -10.39741,3.46554 -19.01787,6.91436 -20.0039,8.00391 -1.16551,1.28789 -1.5259,2.74296 -1.09961,4.4414 1.12279,4.47355 4.60474,4.33266 20.1582,-0.81054 7.78695,-2.57499 14.88105,-4.4051 15.76367,-4.06641 2.85465,1.09543 3.11531,4.46019 0.53711,6.9375 -2.28181,2.19252 -20.61147,8.72598 -33.35547,11.88867 -21.64504,5.37169 -53.4623,6.56066 -74.5,2.78321 -50.06657,-8.9898 -85.43911,-37.93893 -89.85937,-73.54297 -2.83866,-22.86471 6.26081,-46.07673 23.59765,-60.19922 5.39999,-4.3988 15.98535,-10.43555 18.29883,-10.43555 0.602,0 3.9102,2.85703 7.35156,6.34961 7.19613,7.30317 19.07415,15.6253 28.22266,19.77344 13.42055,6.08516 36.9737,10.97351 38.78125,8.04883 0.37296,-0.60346 -0.45861,-3.3429 -1.84961,-6.08789 -2.20695,-4.35521 -3.00886,-5.06793 -6.28711,-5.60157 -19.27563,-3.13775 -33.05663,-9.33117 -46.87109,-21.0625 -11.31908,-9.61221 -22.11684,-27.504276 -26.50391,-43.919918 -3.22702,-12.074927 -3.07275,-30.703846 0.35938,-43.570313 6.66508,-24.9862027 21.83252,-43.391455 45.62304,-55.363281 11.21895,-5.64558 20.49088,-7.72867 34.63672,-7.78125 14.34915,-0.05333 22.30719,1.623622 34.23438,7.212891 23.76365,11.136026 40.72303,31.2672408 47.4082,56.277343 2.85708,10.688716 3.49443,28.142836 1.42578,39.087891 -0.92135,4.87476 -1.49524,9.043814 -1.27539,9.263672 0.72397,0.72396 11.25471,-4.378769 12.74609,-6.175781 2.35823,-2.84149 2.0444,-32.658561 -0.44726,-42.451172 -8.35338,-32.830069 -32.13381,-59.619907 -62.17383,-70.044922 -11.16364,-3.874202 -22.67425,-5.574973 -34.02148,-5.230469 z m -31.02539,72.923828 c -0.94494,0.05519 -1.923,0.217799 -2.92383,0.494141 -4.42234,1.221065 -7.43836,5.834261 -7.44336,11.384766 -0.004,4.820922 2.13461,8.190491 6.37304,10.035156 3.98647,1.735002 4.96184,1.740019 9.02344,0.04297 4.4288,-1.850468 6.60071,-5.167537 6.59571,-10.078125 -0.007,-7.422552 -5.01047,-12.265229 -11.625,-11.878908 z m 65.6289,0.351563 c -11.30512,0 -14.88384,16.354469 -4.67969,21.386719 4.01279,1.978934 6.03171,1.998308 9.71094,0.0957 10.02176,-5.182456 6.20458,-21.482422 -5.03125,-21.482422 z m -61.4707,39.513672 c -0.87004,-0.01465 -1.719,0.151223 -2.54688,0.49414 -4.21174,1.744564 -5.58614,5.917603 -3.43945,10.441407 2.92594,6.165952 12.09032,12.931211 21.95703,16.208984 2.64538,0.87881 7.78434,1.225218 15.17578,1.023437 10.55737,-0.288207 11.58631,-0.507414 18.58985,-3.96875 9.03129,-4.463507 16.73437,-12.084757 16.73437,-16.558593 0,-4.126687 -2.84125,-7.255821 -6.68945,-7.365235 -2.31757,-0.06589 -4.47403,0.992526 -7.99219,3.921875 -8.47658,7.057913 -10.57062,7.789063 -22.31836,7.789063 -11.48751,0 -15.85295,-1.455022 -21,-6.998047 -3.05304,-3.287914 -5.86059,-4.944343 -8.4707,-4.988281 z"
         sodipodi:nodetypes="sssssssssssssssssssssssssssssssssssssssssssssssssssssssssssssssssssssssscsscssssssssssssssssss" /></g></g></svg>
